# xmcd
#
# Track frame offsets:
#	150
#	22681
#	42814
#	64242
#	103665
#	124546
#	143866
#	162347
#	200305
#	221782
#	238817
#	260358
#	268303
#
# Disc length: 3819 seconds
#
# Revision: 0
# Processed by: cddbd v1.5PL3 Copyright (c) Steve Scherf et al.
# Submitted via: dBpowerAMP V4.0
#
DISCID=bc0ee90d
DTITLE=Dave Sherman and the Nightcrawlers - Bad Boy
DYEAR=2000
DGENRE=Blues
TTITLE0=Marie
TTITLE1=It's Just Not Me
TTITLE2=Dressin' Like You Don't Dress For Me
TTITLE3=Bad Boy
TTITLE4=Love Me Tonight
TTITLE5=Trinidaddy Baby
TTITLE6=Nightcrawlin'
TTITLE7=Talk to Me Baby
TTITLE8=Rock This House
TTITLE9=Serves You Right
TTITLE10=Buckeye
TTITLE11=Nightcrawlin'
TTITLE12=Pop's Blues
EXTD=
EXTT0=
EXTT1=
EXTT2=
EXTT3=
EXTT4=
EXTT5=
EXTT6=
EXTT7=
EXTT8=
EXTT9=
EXTT10=
EXTT11=
EXTT12=
PLAYORDER=
